<svg width="128" height="128" xmlns="http://www.w3.org/2000/svg">
  <!-- Background -->
  <rect width="128" height="128" rx="20" fill="#1a73e8"/>
  
  <!-- Network/Capture icon -->
  <g transform="translate(24, 24)">
    <!-- Antenna/Signal waves -->
    <path d="M 40 10 Q 30 20, 40 30" stroke="#fff" stroke-width="4" fill="none" stroke-linecap="round"/>
    <path d="M 40 10 Q 50 20, 40 30" stroke="#fff" stroke-width="4" fill="none" stroke-linecap="round"/>
    
    <path d="M 40 5 Q 25 20, 40 35" stroke="#fff" stroke-width="3" fill="none" stroke-linecap="round" opacity="0.7"/>
    <path d="M 40 5 Q 55 20, 40 35" stroke="#fff" stroke-width="3" fill="none" stroke-linecap="round" opacity="0.7"/>
    
    <!-- Center dot -->
    <circle cx="40" cy="20" r="4" fill="#fff"/>
    
    <!-- WebSocket connector line -->
    <line x1="40" y1="24" x2="40" y2="45" stroke="#fff" stroke-width="3" stroke-linecap="round"/>
    
    <!-- Network nodes -->
    <circle cx="20" cy="55" r="5" fill="#fff"/>
    <circle cx="40" cy="50" r="5" fill="#fff"/>
    <circle cx="60" cy="55" r="5" fill="#fff"/>
    
    <!-- Connection lines -->
    <line x1="25" y1="55" x2="35" y2="50" stroke="#fff" stroke-width="2"/>
    <line x1="45" y1="50" x2="55" y2="55" stroke="#fff" stroke-width="2"/>
    
    <!-- Data packets -->
    <rect x="36" y="60" width="8" height="8" fill="#4CAF50" rx="2"/>
    <rect x="16" y="65" width="6" height="6" fill="#4CAF50" rx="1" opacity="0.8"/>
    <rect x="58" y="65" width="6" height="6" fill="#4CAF50" rx="1" opacity="0.8"/>
  </g>
</svg>
